<svg width="36" height="36" viewBox="0 0 36 36" fill="none" xmlns="http://www.w3.org/2000/svg">
<path d="M7.5 18L7.515 18M18 18L18.015 18M28.5 18L28.515 18M9 18C9 18.3978 8.84196 18.7794 8.56066 19.0607C8.27935 19.342 7.89782 19.5 7.5 19.5C7.10218 19.5 6.72064 19.342 6.43934 19.0607C6.15804 18.7794 6 18.3978 6 18C6 17.6022 6.15804 17.2206 6.43934 16.9393C6.72064 16.658 7.10217 16.5 7.5 16.5C7.89782 16.5 8.27935 16.658 8.56066 16.9393C8.84196 17.2206 9 17.6022 9 18ZM19.5 18C19.5 18.3978 19.342 18.7794 19.0607 19.0607C18.7794 19.342 18.3978 19.5 18 19.5C17.6022 19.5 17.2206 19.342 16.9393 19.0607C16.658 18.7794 16.5 18.3978 16.5 18C16.5 17.6022 16.658 17.2206 16.9393 16.9393C17.2206 16.658 17.6022 16.5 18 16.5C18.3978 16.5 18.7794 16.658 19.0607 16.9393C19.342 17.2206 19.5 17.6022 19.5 18ZM30 18C30 18.3978 29.842 18.7794 29.5607 19.0607C29.2794 19.342 28.8978 19.5 28.5 19.5C28.1022 19.5 27.7206 19.342 27.4393 19.0607C27.158 18.7794 27 18.3978 27 18C27 17.6022 27.158 17.2206 27.4393 16.9393C27.7206 16.658 28.1022 16.5 28.5 16.5C28.8978 16.5 29.2794 16.658 29.5607 16.9393C29.842 17.2206 30 17.6022 30 18Z" stroke="#758591" stroke-width="2" stroke-linecap="round" stroke-linejoin="round"/>
</svg>
